<svg class="navbar-img" id="line" enable-background="new 0 0 36 36" height="512" viewBox="0 0 36 36" width="512"
    xmlns="http://www.w3.org/2000/svg">
    <g>
        <path
            d="m4.167 27.623c0-6.917-3.583-11.667-3.583-15s1.916-10.333 17.249-10.333 17.583 9.417 17.583 13.083c.001 17.167-31.249 24.5-31.249 12.25z"
            fill="#efefef"></path>
    </g>
    <g>
        <path
            d="m4 10.5c-.827 0-1.5-.673-1.5-1.5s.673-1.5 1.5-1.5 1.5.673 1.5 1.5-.673 1.5-1.5 1.5zm0-2c-.275 0-.5.224-.5.5s.225.5.5.5.5-.224.5-.5-.225-.5-.5-.5z"
            fill="#a4afc1"></path>
    </g>
    <g>
        <circle cx="11.5" cy="20.5" fill="#f3f3f1" r="2.25"></circle>
    </g>
    <g>
        <path d="m16.25 30v-2.25c0-1.105-.895-2-2-2h-5.5c-1.105 0-2 .895-2 2v2.25z" fill="#f3f3f1"></path>
    </g>
    <g>
        <path
            d="m24.25 15.25h-10.5c-.552 0-1-.448-1-1v-6.5c0-.552.448-1 1-1h10.5c.552 0 1 .448 1 1v6.5c0 .552-.448 1-1 1z"
            fill="#2fdf84"></path>
    </g>
    <g>
        <path
            d="m29.25 13.5v5.75c0 1.105-.895 2-2 2h-4l-2.5 2.75v-2.75h-2c-1.105 0-2-.895-2-2v-5.75c0-1.105.895-2 2-2h8.5c1.105 0 2 .895 2 2z"
            fill="#2fdf84"></path>
    </g>
    <g>
        <path
            d="m11.5 20.5c0-.831.455-1.548 1.125-1.938-.332-.193-.713-.312-1.125-.312-1.243 0-2.25 1.007-2.25 2.25s1.007 2.25 2.25 2.25c.412 0 .793-.119 1.125-.312-.67-.39-1.125-1.107-1.125-1.938z"
            fill="#d5dbe1"></path>
    </g>
    <g>
        <path d="m11 25.75h-2.25c-1.105 0-2 .895-2 2v2.25h2.25v-2.25c0-1.105.895-2 2-2z" fill="#d5dbe1"></path>
    </g>
    <g>
        <path d="m15 14.25v-6.5c0-.552.448-1 1-1h-2.25c-.552 0-1 .448-1 1v6.5c0 .552.448 1 1 1h2.25c-.552 0-1-.448-1-1z"
            fill="#00b871"></path>
    </g>
    <g>
        <path d="m23 21.525v-.275h-2c-1.105 0-2-.895-2-2v-4h-2.25v4c0 1.105.895 2 2 2h2v2.75z" fill="#00b871"></path>
    </g>
    <g>
        <path
            d="m20.75 25c-.102 0-.204-.021-.301-.063-.272-.12-.449-.389-.449-.687v-2.25h-1.25c-1.517 0-2.75-1.234-2.75-2.75v-1.25h1.5v1.25c0 .689.561 1.25 1.25 1.25h2c.414 0 .75.336.75.75v1.287l1.991-1.838c.139-.128.321-.199.509-.199h3.25c.689 0 1.25-.561 1.25-1.25v-5.75c0-.448-.234-.853-.628-1.083l-.647-.378.756-1.295.647.378c.859.502 1.372 1.391 1.372 2.378v5.75c0 1.516-1.233 2.75-2.75 2.75h-2.957l-3.034 2.801c-.142.131-.324.199-.509.199z">
        </path>
    </g>
    <g>
        <path
            d="m11.5 23.5c-1.654 0-3-1.346-3-3s1.346-3 3-3 3 1.346 3 3-1.346 3-3 3zm0-4.5c-.827 0-1.5.673-1.5 1.5s.673 1.5 1.5 1.5 1.5-.673 1.5-1.5-.673-1.5-1.5-1.5z">
        </path>
    </g>
    <g>
        <path
            d="m17 30h-1.5v-2.25c0-.689-.561-1.25-1.25-1.25h-5.5c-.689 0-1.25.561-1.25 1.25v2.25h-1.5v-2.25c0-1.517 1.233-2.75 2.75-2.75h5.5c1.517 0 2.75 1.233 2.75 2.75z">
        </path>
    </g>
    <g>
        <path
            d="m24.25 16h-10.5c-.965 0-1.75-.785-1.75-1.75v-6.5c0-.965.785-1.75 1.75-1.75h10.5c.965 0 1.75.785 1.75 1.75v6.5c0 .965-.785 1.75-1.75 1.75zm-10.5-8.5c-.138 0-.25.112-.25.25v6.5c0 .138.112.25.25.25h10.5c.138 0 .25-.112.25-.25v-6.5c0-.138-.112-.25-.25-.25z">
        </path>
    </g>
    <g>
        <path
            d="m19 12.392c-.369 0-.737-.091-1.073-.273l-5.534-3.003.715-1.318 5.534 3.003c.225.122.492.122.717 0l5.534-3.003.715 1.318-5.534 3.003c-.337.182-.705.273-1.074.273z">
        </path>
    </g>
    <g>
        <path d="m2 28.5h32v1.5h-32z"></path>
    </g>
</svg>